<svg width="794" height="547" viewBox="0 0 794 547" fill="none" xmlns="http://www.w3.org/2000/svg">
<path d="M160.533 139.2C140.667 143.733 124 153.333 109.6 168.533C82.2666 197.333 75.5999 235.733 90.2666 279.6C99.8666 308.533 122.8 342.933 150.267 369.467C168.933 387.6 177.6 394.667 180.933 394.667C187.6 394.667 222.8 360.533 241.467 335.867C249.867 324.933 261.467 305.2 267.2 292.267C275.867 272.667 280.8 246.933 279.333 229.467C275.733 187.2 250 154.933 209.333 141.333C198.133 137.6 172.533 136.533 160.533 139.2ZM200.4 160.667C230.267 168.4 252.533 193.067 257.867 224.267L258.8 229.333H228.133C197.467 229.333 197.467 229.333 194.267 226.133C186.667 218.533 174 219.2 166.667 227.6C163.333 231.333 162.667 233.2 162.667 239.333C162.667 245.467 163.333 247.2 166.667 251.2C174.267 259.867 185.467 260.667 193.867 253.333L198.4 249.333H228.533H258.667L257.867 252.933C249.467 287.733 235.067 313.467 205.333 346.4C189.867 363.6 182.133 369.867 178.8 368.133C175.2 366.133 149.067 338.667 140 327.333L131.6 316.667L147.867 316.267C163.6 315.867 164.267 316 168.133 319.2C179.2 328.533 195.067 324.8 198.8 311.867C202 301.2 196.533 290.8 186.267 288.267C179.067 286.4 172.4 288 168 292.667C164.933 296 164.667 296 142.4 296H119.867L115.333 286.267C104.4 263.333 100.533 234 106 215.333C113.467 189.467 136.8 166.667 162 160.533C171.467 158.267 191.333 158.267 200.4 160.667Z" fill="#43A756"/>
<path d="M327.333 176.267C316.4 180.133 310.266 188.4 310.266 199.733C310.266 211.733 316.266 217.2 336.8 224C350.133 228.533 353.333 231.067 353.333 237.6C353.333 242.4 349.466 246.267 343.466 247.333C337.333 248.533 331.866 245.733 329.333 240.4C327.333 236.133 327.2 236 318.4 236C313.333 236 309.333 236.4 309.333 236.933C309.466 245.467 319.2 256.8 329.066 259.733C340.4 263.2 354 260.933 362 254.267C368.133 249.333 370.666 243.467 370.666 234.8C370.666 223.733 363.466 217.2 343.733 210.8C332 206.933 328 203.733 328 198.133C328 193.067 331.066 189.733 336.933 188.533C342 187.467 349.066 190.933 350.666 195.333C351.866 198.4 352.533 198.667 361.2 198.667H370.4L368.933 193.067C367.2 186.133 359.733 178.4 352.533 176.267C346 174.4 332.933 174.267 327.333 176.267Z" fill="#43A756"/>
<path d="M407.734 175.733L386.667 176.133V218V260H411.334H436V253.333V246.667H419.334H402.667V235.333V224H417.334H432V217.333V210.667H417.334H402.667V200V189.333H419.334H436V182.8C436 174.933 437.2 175.2 407.734 175.733Z" fill="#43A756"/>
<path d="M456.666 175.733L451.333 176.133L451.6 217.733L451.866 259.333L459.866 259.733L468 260.133L468.266 231.067L468.666 202.133L487.6 231.067L506.533 260H515.333H524V217.333V174.533L515.733 174.933L507.333 175.333L506.666 204.133L506 232.8L487.333 204.533C467.333 174 468.133 174.933 456.666 175.733Z" fill="#43A756"/>
<path d="M572.8 275.2C563.066 279.333 555.733 286.4 550.933 296C547.866 302.267 547.333 304.933 547.333 315.333C547.333 326.4 547.733 328 551.866 335.733C559.866 350.533 572.4 358 589.333 357.867C607.866 357.733 622.4 348.933 627.866 334.4L629.066 331.067L620 330.8C611.466 330.533 610.666 330.8 608.533 333.867C603.466 341.733 592.4 345.2 581.866 342C570.266 338.533 564 329.067 564 314.667C564 299.067 574.666 286.667 588.266 286.667C595.466 286.667 602.666 289.6 606.666 294.267C610.4 298.533 611.066 298.667 620 298.667H629.466L627.2 294.267C619.866 279.867 608.8 273.067 591.466 272.4C582.266 272 579.466 272.4 572.8 275.2Z" fill="#2FB4FF"/>
<path d="M644.667 314.667V357.333H669.067H693.333V350.667V344H677.333H661.333V332.667V321.333H675.333H689.333V314.667V308H675.333H661.333V297.333V286.667H677.333H693.333V279.333V272H668.933H644.533L644.667 314.667Z" fill="#2FB4FF"/>
<path d="M310.133 279.6L310.267 286H321.467H332.667L332.133 321.6L331.6 357.333H340.533H349.333V321.333V285.333H360.667H372V279.333V273.333H341.067H310L310.133 279.6Z" fill="#2FB4FF"/>
<path d="M386 274.4C385.6 274.8 385.333 293.6 385.333 316.267V357.333H393.333H401.333V340.667V324H405.733C409.866 324 410.4 324.667 419.2 340.667L428.533 357.333H437.6C442.533 357.333 446.666 356.933 446.666 356.533C446.666 356.133 442.4 348.533 437.066 339.6C431.866 330.667 428.266 323.2 429.066 322.933C433.733 321.467 441.866 313.733 444.133 308.933C450.533 294.533 443.466 279.467 427.866 274.8C422.8 273.2 387.466 272.933 386 274.4ZM426.133 289.733C429.2 292.4 429.733 293.867 429.6 299.467C429.6 304.933 428.933 306.4 425.733 308.933C422.533 311.467 420.4 312 411.733 312H401.333V299.333V286.667H411.866C421.066 286.667 423.066 287.067 426.133 289.733Z" fill="#2FB4FF"/>
<path d="M479.467 298.267C474.534 312 467.867 330.667 464.534 339.733C461.334 348.667 458.667 356.4 458.667 356.667C458.667 357.067 462.534 357.333 467.2 357.333H475.734L478.267 349.6L480.934 342L498.267 341.6L515.6 341.2L518 349.333L520.4 357.333H529.467H538.534L534.534 346.267C532.267 340.267 525.467 321.467 519.467 304.667L508.667 274L498.534 273.6L488.4 273.2L479.467 298.267ZM505.067 310C508.134 318.8 510.667 326.4 510.667 326.933C510.667 327.6 504.934 328 498 328H485.467L491.734 310C495.067 300.133 498.267 292.533 498.8 293.067C499.2 293.6 502.134 301.2 505.067 310Z" fill="#2FB4FF"/>
</svg>
